# xmcd
#
# Track frame offsets:
#	151
#	15566
#	29178
#	50385
#	66488
#	83261
#	99886
#	116787
#	134420
#	148049
#	166025
#
# Disc length: 2298 seconds
#
# Revision: 0
# Processed by: cddbd v1.5.2PL0 Copyright (c) Steve Scherf et al.
# Submitted via: EasyCDDAExtractor 10.0.2.1
#
DISCID=8f08f80b
DTITLE=Various Artist - Capitol Vol.29
DYEAR=2000
DGENRE=Gospel
TTITLE0=The Jordanaires - Sending Me Out
TTITLE1=Art Greenhaw - Lokking Through A Stained Glass Darkly                 
TTITLE1=                              
TTITLE2=Danny Funderburk - How Beautiful Heaven Must Be
TTITLE3=Craig Pippin and Destiny - My Shadow
TTITLE4=Harvest Time Qt. - The Great Beyond
TTITLE5=Pune In Heart - Listen With Your Heart
TTITLE6=The Oxendines - Coffin Box
TTITLE7=Heirborn - The Tomb Is Still Empy
TTITLE8=Sargents - Never Been Out Of His Love
TTITLE9=CJ and The Philadelphians - Draw Me Close, I Worship you almighty God   
TTITLE9=                                                            
TTITLE9=                   
TTITLE10=DJN\nDJ Humor - Reverend Jimmy's Used Auto Sales                   
EXTD=
EXTT0=
EXTT1=
EXTT2=
EXTT3=
EXTT4=
EXTT5=
EXTT6=
EXTT7=
EXTT8=
EXTT9=
EXTT10=
PLAYORDER=
